sfk_cyclingleg_x_-0.1_y_-0.05_states
version=1
nRows=12
nColumns=53
inDegrees=yes

# SIMM Motion File Header:
name sfk_cyclingleg_x_-0.1_y_-0.05_states
datacolumns 53
datarows 12
otherdata 1
range 0.85452410 0.85674876
endheader
time	/jointset/bb/crank_angle/value	/jointset/bb/crank_angle/speed	/jointset/spindle/pedal_angle_r/value	/jointset/spindle/pedal_angle_r/speed	/jointset/ground_pelvis/pelvis_tilt/value	/jointset/ground_pelvis/pelvis_tilt/speed	/jointset/ground_pelvis/pelvis_list/value	/jointset/ground_pelvis/pelvis_list/speed	/jointset/ground_pelvis/pelvis_rotation/value	/jointset/ground_pelvis/pelvis_rotation/speed	/jointset/ground_pelvis/pelvis_tx/value	/jointset/ground_pelvis/pelvis_tx/speed	/jointset/ground_pelvis/pelvis_ty/value	/jointset/ground_pelvis/pelvis_ty/speed	/jointset/ground_pelvis/pelvis_tz/value	/jointset/ground_pelvis/pelvis_tz/speed	/jointset/hip_r/hip_angle_r/value	/jointset/hip_r/hip_angle_r/speed	/jointset/hip_r/hip_adduction_r/value	/jointset/hip_r/hip_adduction_r/speed	/jointset/hip_r/hip_rotation_r/value	/jointset/hip_r/hip_rotation_r/speed	/jointset/knee_r/knee_angle_r/value	/jointset/knee_r/knee_angle_r/speed	/jointset/knee_r/tib_tx_r/value	/jointset/knee_r/tib_tx_r/speed	/jointset/knee_r/tib_ty_r/value	/jointset/knee_r/tib_ty_r/speed	/jointset/tib_pat_r/pat_angle_r/value	/jointset/tib_pat_r/pat_angle_r/speed	/jointset/tib_pat_r/pat_tx_r/value	/jointset/tib_pat_r/pat_tx_r/speed	/jointset/tib_pat_r/pat_ty_r/value	/jointset/tib_pat_r/pat_ty_r/speed	/jointset/ankle_r/ankle_angle_r/value	/jointset/ankle_r/ankle_angle_r/speed	/jointset/subtalar_r/subtalar_angle_r/value	/jointset/subtalar_r/subtalar_angle_r/speed	/jointset/mtp_r/mtp_angle_r/value	/jointset/mtp_r/mtp_angle_r/speed	/forceset/bifemlh_r/activation	/forceset/bifemlh_r/fiber_length	/forceset/bifemsh_r/activation	/forceset/bifemsh_r/fiber_length	/forceset/glut_max2_r/activation	/forceset/glut_max2_r/fiber_length	/forceset/vas_int_r/activation	/forceset/vas_int_r/fiber_length	/forceset/med_gas_r/activation	/forceset/med_gas_r/fiber_length	/forceset/tib_ant_r/activation	/forceset/tib_ant_r/fiber_length
      0.85452410	   -420.42491220	   -480.13863232	    426.57673735	    570.75877781	      0.00000000	      0.00000000	     -0.00000000	      0.00000000	     -0.00000000	     -0.00000000	     -0.10000000	     -0.00000000	     -0.05000000	      0.00000000	      0.00000000	     -0.00000000	     76.14940377	   -149.32382930	      4.27930642	      1.80943413	     -1.75487900	     21.55349558	    -92.36483212	    271.09064867	      0.00348463	      0.04131722	     -0.48675632	      0.09405095	     17.57527829	     -1.02716583	      0.03184484	      0.10603351	     -0.02279262	      0.01139216	     22.89855820	    -32.55189168	      0.00000000	     -0.00000000	     -0.00000000	      0.00000000	     -0.08457786	      0.13888685	     -0.08457786	      0.15074965	     -0.08457786	      0.15323154	     -0.08457786	      0.14958077	     -0.08457786	      0.13498931	     -0.08457786	      0.11574236
      0.85466710	   -420.49356866	   -480.13863232	    426.65834933	    570.72346396	      0.00000000	      0.00000000	     -0.00000000	      0.00000000	     -0.00000000	     -0.00000000	     -0.10000000	     -0.00000000	     -0.05000000	      0.00000000	      0.00000000	     -0.00000000	     76.12803890	   -149.50015586	      4.27956504	      1.80786262	     -1.75179689	     21.55511102	    -92.32606191	    271.17670791	      0.00349054	      0.04125258	     -0.48674287	      0.09408130	     17.57513149	     -1.02601584	      0.03186000	      0.10602768	     -0.02279099	      0.01137318	     22.89390750	    -32.49606406	      0.00000000	     -0.00000000	     -0.00000000	      0.00000000	     -0.08459627	      0.13888173	     -0.08459627	      0.15076351	     -0.08459627	      0.15322206	     -0.08459627	      0.14955980	     -0.08459627	      0.13499579	     -0.08459627	      0.11574649
      0.85492646	   -420.61810189	   -480.13863232	    426.80636920	    570.65955717	      0.00000000	      0.00000000	     -0.00000000	      0.00000000	     -0.00000000	     -0.00000000	     -0.10000000	     -0.00000000	     -0.05000000	      0.00000000	      0.00000000	     -0.00000000	     76.08922173	   -149.81941505	      4.28003358	      1.80500194	     -1.74620578	     21.55802407	    -92.25570680	    271.33228098	      0.00350122	      0.04113512	     -0.48671846	      0.09413609	     17.57486565	     -1.02389932	      0.03188750	      0.10601685	     -0.02278804	      0.01133863	     22.88549216	    -32.39469607	      0.00000000	     -0.00000000	     -0.00000000	      0.00000000	     -0.08462966	      0.13887243	     -0.08462966	      0.15078870	     -0.08462966	      0.15320484	     -0.08462966	      0.14952172	     -0.08462966	      0.13501450	     -0.08462966	      0.11575396
      0.85527839	   -420.78707684	   -480.13863232	    427.00718591	    570.57314797	      0.00000000	      0.00000000	     -0.00000000	      0.00000000	     -0.00000000	     -0.00000000	     -0.10000000	     -0.00000000	     -0.05000000	      0.00000000	      0.00000000	     -0.00000000	     76.03641980	   -150.25142683	      4.28066812	      1.80109944	     -1.73861818	     21.56194178	    -92.16017997	    271.54228860	      0.00351567	      0.04097534	     -0.48668532	      0.09420989	     17.57450582	     -1.02096422	      0.03192481	      0.10600164	     -0.02278406	      0.01129150	     22.87411574	    -32.25693921	      0.00000000	     -0.00000000	     -0.00000000	      0.00000000	     -0.08467498	      0.13885977	     -0.08467498	      0.15082297	     -0.08467498	      0.15318138	     -0.08467498	      0.14946998	     -0.08467498	      0.13512166	     -0.08467498	      0.11576407
      0.85533084	   -420.81225700	   -480.13863232	    427.03710844	    570.56030142	      0.00000000	      0.00000000	     -0.00000000	      0.00000000	     -0.00000000	     -0.00000000	     -0.10000000	     -0.00000000	     -0.05000000	      0.00000000	      0.00000000	     -0.00000000	     76.02853840	   -150.31568764	      4.28076256	      1.80051584	     -1.73748738	     21.56252218	    -92.14593852	    271.57347652	      0.00351782	      0.04095149	     -0.48668038	      0.09422083	     17.57445229	     -1.02052059	      0.03193037	      0.10599932	     -0.02278347	      0.01128445	     22.87242461	    -32.23639009	      0.00000000	     -0.00000000	     -0.00000000	      0.00000000	     -0.08468173	      0.13885788	     -0.08468173	      0.15082809	     -0.08468173	      0.15317787	     -0.08468173	      0.14946227	     -0.08468173	      0.13509607	     -0.08468173	      0.11576557
      0.85546038	   -420.87445571	   -480.13863232	    427.11101861	    570.52860176	      0.00000000	      0.00000000	     -0.00000000	      0.00000000	     -0.00000000	     -0.00000000	     -0.10000000	     -0.00000000	     -0.05000000	      0.00000000	      0.00000000	     -0.00000000	     76.00905574	   -150.47429198	      4.28099571	      1.79907200	     -1.73469401	     21.56395207	    -92.11075303	    271.65039662	      0.00352312	      0.04089252	     -0.48666817	      0.09424780	     17.57432016	     -1.01941781	      0.03194410	      0.10599354	     -0.02278201	      0.01126701	     22.86825190	    -32.18560752	      0.00000000	     -0.00000000	     -0.00000000	      0.00000000	     -0.08469841	      0.13885320	     -0.08469841	      0.15084074	     -0.08469841	      0.15316921	     -0.08469841	      0.14944320	     -0.08469841	      0.13508770	     -0.08469841	      0.11576927
      0.85582058	   -421.04740244	   -480.13863232	    427.31650812	    570.44070737	      0.00000000	      0.00000000	     -0.00000000	      0.00000000	     -0.00000000	     -0.00000000	     -0.10000000	     -0.00000000	     -0.05000000	      0.00000000	      0.00000000	     -0.00000000	     75.95477536	   -150.91433179	      4.28164302	      1.79504029	     -1.72692593	     21.56789998	    -92.01286571	    271.86338945	      0.00353782	      0.04072824	     -0.48663421	      0.09432234	     17.57395352	     -1.01629937	      0.03198228	      0.10597703	     -0.02277796	      0.01121830	     22.85668404	    -32.04423094	      0.00000000	     -0.00000000	     -0.00000000	      0.00000000	     -0.08474478	      0.13884017	     -0.08474478	      0.15087599	     -0.08474478	      0.15314505	     -0.08474478	      0.14939012	     -0.08474478	      0.13509093	     -0.08474478	      0.11577955
      0.85596077	   -421.11471225	   -480.13863232	    427.39647483	    570.40659796	      0.00000000	      0.00000000	     -0.00000000	      0.00000000	     -0.00000000	     -0.00000000	     -0.10000000	     -0.00000000	     -0.05000000	      0.00000000	      0.00000000	     -0.00000000	     75.93360696	   -151.08520777	      4.28189455	      1.79346443	     -1.72390225	     21.56942545	    -91.97474786	    271.94593227	      0.00354352	      0.04066417	     -0.48662099	      0.09435117	     17.57381114	     -1.01506493	      0.03199713	      0.10597044	     -0.02277639	      0.01119926	     22.85219568	    -31.98913960	      0.00000000	     -0.00000000	     -0.00000000	      0.00000000	     -0.08476283	      0.13883509	     -0.08476283	      0.15088974	     -0.08476283	      0.15313561	     -0.08476283	      0.14936944	     -0.08476283	      0.13509737	     -0.08476283	      0.11578353
      0.85621829	   -421.23835842	   -480.13863232	    427.54335892	    570.34408361	      0.00000000	      0.00000000	     -0.00000000	      0.00000000	     -0.00000000	     -0.00000000	     -0.10000000	     -0.00000000	     -0.05000000	      0.00000000	      0.00000000	     -0.00000000	     75.89465886	   -151.39854020	      4.28235603	      1.79055982	     -1.71834730	     21.57221176	    -91.90469638	    272.09704649	      0.00355398	      0.04054628	     -0.48659668	      0.09440386	     17.57355003	     -1.01276694	      0.03202442	      0.10595808	     -0.02277351	      0.01116416	     22.84397082	    -31.88783910	      0.00000000	     -0.00000000	     -0.00000000	      0.00000000	     -0.08479599	      0.13882573	     -0.08479599	      0.15091504	     -0.08479599	      0.15311825	     -0.08479599	      0.14933142	     -0.08479599	      0.13511617	     -0.08479599	      0.11579084
      0.85656757	   -421.40606170	   -480.13863232	    427.74255448	    570.25959117	      0.00000000	      0.00000000	     -0.00000000	      0.00000000	     -0.00000000	     -0.00000000	     -0.10000000	     -0.00000000	     -0.05000000	      0.00000000	      0.00000000	     -0.00000000	     75.84170418	   -151.82235537	      4.28298075	      1.78660004	     -1.71081188	     21.57595822	    -91.80962242	    272.30094113	      0.00356812	      0.04038599	     -0.48656369	      0.09447480	     17.57319684	     -1.00958717	      0.03206143	      0.10594082	     -0.02276962	      0.01111629	     22.83285703	    -31.75023938	      0.00000000	     -0.00000000	     -0.00000000	      0.00000000	     -0.08484096	      0.13881300	     -0.08484096	      0.15094946	     -0.08484096	      0.15309461	     -0.08484096	      0.14927978	     -0.08484096	      0.13522339	     -0.08484096	      0.11580071
      0.85661994	   -421.43120476	   -480.13863232	    427.77241650	    570.24695298	      0.00000000	      0.00000000	     -0.00000000	      0.00000000	     -0.00000000	     -0.00000000	     -0.10000000	     -0.00000000	     -0.05000000	      0.00000000	      0.00000000	     -0.00000000	     75.83375215	   -151.88578086	      4.28307429	      1.78600436	     -1.70968201	     21.57651670	    -91.79536224	    272.33140469	      0.00357023	      0.04036192	     -0.48655875	      0.09448538	     17.57314399	     -1.00910418	      0.03206697	      0.10593818	     -0.02276904	      0.01110909	     22.83119492	    -31.72958947	      0.00000000	     -0.00000000	     -0.00000000	      0.00000000	     -0.08484770	      0.13881109	     -0.08484770	      0.15095463	     -0.08484770	      0.15309106	     -0.08484770	      0.14927203	     -0.08484770	      0.13519765	     -0.08484770	      0.11580219
      0.85674876	   -421.49305406	   -480.13863232	    427.84587115	    570.21589693	      0.00000000	      0.00000000	     -0.00000000	      0.00000000	     -0.00000000	     -0.00000000	     -0.10000000	     -0.00000000	     -0.05000000	      0.00000000	      0.00000000	     -0.00000000	     75.81417687	   -152.04167293	      4.28330426	      1.78453685	     -1.70690253	     21.57788696	    -91.76027692	    272.40622484	      0.00357543	      0.04030266	     -0.48654657	      0.09451135	     17.57301408	     -1.00790913	      0.03208062	      0.10593163	     -0.02276761	      0.01109135	     22.82711093	    -31.67877057	      0.00000000	     -0.00000000	     -0.00000000	      0.00000000	     -0.08486428	      0.13880638	     -0.08486428	      0.15096735	     -0.08486428	      0.15308231	     -0.08486428	      0.14925297	     -0.08486428	      0.13518934	     -0.08486428	      0.11580582
